<?xml version="1.0" standalone="no"?>
<!DOCTYPE svg PUBLIC "-//W3C//DTD SVG 20010904//EN" "http://www.w3.org/TR/2001/REC-SVG-20010904/DTD/svg10.dtd">
<svg xmlns="http://www.w3.org/2000/svg" version="1.0" width="40.000000pt" height="40.000000pt" viewBox="0 0 40.000000 40.000000" preserveAspectRatio="xMidYMid meet">
<metadata>
Created by potrace 1.16, written by Peter Selinger 2001-2019
<meta name="Producer" content="Online-Convert"/></metadata>
<g transform="translate(0.000000,40.000000) scale(0.100000,-0.100000)" fill="#000000" stroke="none">
<path d="M71 271 c-23 -15 -4 -32 23 -20 27 13 66 -3 66 -26 0 -12 -14 -15 -60 -15 -53 0 -60 -2 -60 -20 0 -57 91 -81 133 -36 l23 24 21 -24 c41 -46 133 -21 133 36 0 18 -7 20 -60 20 -47 0 -60 3 -60 15 0 23 43 40 68 26 24 -13 44 5 21 20 -39 25 -118 -4 -119 -43 0 -7 -6 -4 -12 7 -6 11 -18 26 -26 33 -18 14 -70 16 -91 3z"/>
</g>
</svg>
