<?xml version="1.0" standalone="no"?>
<!DOCTYPE svg PUBLIC "-//W3C//DTD SVG 20010904//EN"
 "http://www.w3.org/TR/2001/REC-SVG-20010904/DTD/svg10.dtd">
<svg version="1.0" xmlns="http://www.w3.org/2000/svg"
 width="40.000000pt" height="40.000000pt" viewBox="0 0 40.000000 40.000000"
 preserveAspectRatio="xMidYMid meet">

<g transform="translate(0.000000,40.000000) scale(0.100000,-0.100000)"
fill="#000000" stroke="none">
<path d="M123 320 c-83 -50 -96 -154 -29 -225 35 -36 66 -46 66 -20 0 8 -8 15
-19 15 -10 0 -27 12 -37 27 l-17 28 27 -18 c16 -11 35 -16 44 -12 14 5 12 9
-11 21 -37 20 -48 51 -35 100 l11 39 77 0 77 0 13 -43 c10 -36 10 -46 -4 -66
-8 -14 -24 -27 -34 -30 -14 -5 -17 -14 -14 -41 5 -40 18 -44 57 -13 54 43 70
127 35 186 -42 69 -139 94 -207 52z"/>
</g>
</svg>
