<?xml version="1.0" standalone="no"?>
<!DOCTYPE svg PUBLIC "-//W3C//DTD SVG 20010904//EN"
 "http://www.w3.org/TR/2001/REC-SVG-20010904/DTD/svg10.dtd">
<svg version="1.0" xmlns="http://www.w3.org/2000/svg"
 width="40.000000pt" height="40.000000pt" viewBox="0 0 40.000000 40.000000"
 preserveAspectRatio="xMidYMid meet">

<g transform="translate(0.000000,40.000000) scale(0.100000,-0.100000)"
fill="#000000" stroke="none">
<path d="M135 300 c-93 -94 -100 -102 -100 -141 0 -37 6 -46 63 -101 61 -59
64 -60 105 -55 32 4 50 15 76 42 30 34 32 38 17 53 -14 15 -19 13 -49 -16 -18
-18 -42 -32 -53 -32 -11 0 -42 22 -68 49 -40 40 -47 54 -42 74 6 24 87 107
105 107 5 0 28 -16 52 -36 39 -32 43 -34 58 -19 15 15 12 20 -31 59 l-47 43
21 21 c19 19 20 52 1 52 -5 0 -53 -45 -108 -100z"/>
<path d="M160 160 c0 -20 5 -21 103 -18 83 2 102 6 102 18 0 12 -19 16 -102
18 -98 3 -103 2 -103 -18z"/>
</g>
</svg>
