<?xml version="1.0" standalone="no"?>
<!DOCTYPE svg PUBLIC "-//W3C//DTD SVG 20010904//EN"
 "http://www.w3.org/TR/2001/REC-SVG-20010904/DTD/svg10.dtd">
<svg version="1.0" xmlns="http://www.w3.org/2000/svg"
 width="40.000000pt" height="40.000000pt" viewBox="0 0 40.000000 40.000000"
 preserveAspectRatio="xMidYMid meet">

<g transform="translate(0.000000,40.000000) scale(0.100000,-0.100000)"
fill="#000000" stroke="none">
<path d="M77 322 c-13 -15 -17 -39 -17 -116 0 -139 -3 -136 134 -136 82 0 117
4 125 13 6 8 11 60 12 122 1 136 3 135 -136 135 -86 0 -104 -3 -118 -18z m73
-57 c0 -8 -7 -15 -15 -15 -8 0 -15 7 -15 15 0 8 7 15 15 15 8 0 15 -7 15 -15z
m0 -90 c0 -42 -3 -55 -15 -55 -12 0 -15 13 -15 55 0 42 3 55 15 55 12 0 15
-13 15 -55z m117 43 c19 -15 17 -98 -1 -98 -10 0 -16 13 -18 38 -2 29 -7 37
-23 37 -16 0 -21 -8 -23 -37 -2 -25 -8 -38 -18 -38 -10 0 -14 14 -14 54 l0 54
42 0 c23 1 48 -4 55 -10z"/>
</g>
</svg>
