<?xml version="1.0" encoding="UTF-8"?>
<svg version="1.1" xmlns="http://www.w3.org/2000/svg" width="500" height="133">
<path d="M0 0 C165 0 330 0 500 0 C500 43.89 500 87.78 500 133 C335 133 170 133 0 133 C0 89.11 0 45.22 0 0 Z " fill="#FCFCFC" transform="translate(0,0)"/>
<path d="M0 0 C11.74858891 10.02085525 12.76992055 30.25577975 15.3125 44.625 C15.65727574 46.53076697 16.00297482 48.43636713 16.34960938 50.34179688 C17.0036908 53.94444796 17.65088536 57.54820842 18.29125977 61.15332031 C18.95223008 64.86906042 19.64691969 68.57743004 20.3515625 72.28515625 C20.97271139 75.69759088 21.37486207 78.95656275 21.3125 82.4375 C21.30605469 83.25476563 21.29960938 84.07203125 21.29296875 84.9140625 C21.125 86.8125 21.125 86.8125 20.125 87.8125 C18.49027118 87.89950342 16.85185945 87.91951063 15.21484375 87.91015625 C14.22548828 87.90693359 13.23613281 87.90371094 12.21679688 87.90039062 C11.17587891 87.89201172 10.13496094 87.88363281 9.0625 87.875 C8.01771484 87.87048828 6.97292969 87.86597656 5.89648438 87.86132812 C3.3059334 87.84949913 0.71549441 87.83301689 -1.875 87.8125 C-3.45982571 84.64284858 -3.25352823 81.17505459 -3.4375 77.6875 C-3.581875 75.08875 -3.72625 72.49 -3.875 69.8125 C-10.145 71.1325 -16.415 72.4525 -22.875 73.8125 C-23.349375 75.771875 -23.82375 77.73125 -24.3125 79.75 C-25.75 85.6875 -25.75 85.6875 -26.875 86.8125 C-28.50972882 86.89950342 -30.14814055 86.91951063 -31.78515625 86.91015625 C-32.77451172 86.90693359 -33.76386719 86.90371094 -34.78320312 86.90039062 C-35.82412109 86.89201172 -36.86503906 86.88363281 -37.9375 86.875 C-38.98228516 86.87048828 -40.02707031 86.86597656 -41.10351562 86.86132812 C-43.6940666 86.84949913 -46.28450559 86.83301689 -48.875 86.8125 C-49.89742849 82.94187784 -49.78464014 80.42817126 -48.6875 76.59375 C-48.40503418 75.59069824 -48.12256836 74.58764648 -47.83154297 73.55419922 C-47.3580542 71.94955811 -47.3580542 71.94955811 -46.875 70.3125 C-46.55031738 69.19246582 -46.22563477 68.07243164 -45.89111328 66.91845703 C-44.90270783 63.5444764 -43.89298893 60.17766021 -42.875 56.8125 C-42.60655273 55.91370117 -42.33810547 55.01490234 -42.06152344 54.08886719 C-36.95414671 37.19827809 -29.9934412 20.94081979 -22.875 4.8125 C-22.55958252 4.04558838 -22.24416504 3.27867676 -21.91918945 2.48852539 C-20.875 0.8125 -20.875 0.8125 -17.375 -0.4375 C-11.57472552 -1.61023309 -5.55332244 -2.29376362 0 0 Z " fill="#5461A8" transform="translate(76.875,16.1875)"/>
<path d="M0 0 C3.09326172 1.00927734 3.09326172 1.00927734 4.99511719 3.65527344 C5.78233154 5.38898193 5.78233154 5.38898193 6.58544922 7.15771484 C7.02073441 8.09639908 7.02073441 8.09639908 7.46481323 9.05404663 C8.36902338 11.02793988 9.23559999 13.01476362 10.09326172 15.00927734 C10.36110474 15.62387817 10.62894775 16.238479 10.90490723 16.8717041 C12.73926527 21.10065765 14.48678086 25.36238231 16.21826172 29.63427734 C17.22076449 32.08483966 18.22336757 34.53536094 19.22607422 36.98583984 C19.70077148 38.16178711 20.17546875 39.33773437 20.66455078 40.54931641 C21.60937434 42.83742977 22.59016566 45.11105209 23.60791016 47.36767578 C24.30835449 48.93437012 24.30835449 48.93437012 25.02294922 50.53271484 C25.65692627 51.90435791 25.65692627 51.90435791 26.30371094 53.30371094 C27.25848985 56.57546725 26.92662816 58.73285924 26.09326172 62.00927734 C25.09326172 63.00927734 25.09326172 63.00927734 22.21826172 63.38427734 C19.09326172 63.00927734 19.09326172 63.00927734 17.40576172 61.07177734 C15.72369832 57.14696274 14.44357675 53.06022245 13.09326172 49.00927734 C-0.27173828 49.50427734 -0.27173828 49.50427734 -13.90673828 50.00927734 C-15.88673828 53.96927734 -17.86673828 57.92927734 -19.90673828 62.00927734 C-20.90673828 63.00927734 -20.90673828 63.00927734 -23.34423828 63.19677734 C-25.90673828 63.00927734 -25.90673828 63.00927734 -27.90673828 61.00927734 C-27.62034353 55.09361351 -25.56200627 50.14763666 -23.26611328 44.74365234 C-22.90205383 43.86960754 -22.53799438 42.99556274 -22.16290283 42.09503174 C-21.00176606 39.31320228 -19.82924961 36.53632867 -18.65673828 33.75927734 C-17.88389442 31.90931273 -17.1117524 30.05905475 -16.34033203 28.20849609 C-4.55886195 0.01455037 -4.55886195 0.01455037 0 0 Z " fill="#515FA7" transform="translate(204.90673828125,33.99072265625)"/>
<path d="M0 0 C3.5 -0.3125 3.5 -0.3125 7 0 C9.85492618 2.85492618 9.25459065 4.84397091 9.2734375 8.8359375 C9.29373014 10.22396634 9.31458099 11.61198712 9.3359375 13 C9.35852349 15.18789471 9.37500126 17.3754707 9.38085938 19.56347656 C9.39039545 21.67571634 9.42418585 23.78652021 9.4609375 25.8984375 C9.46915527 27.16349121 9.47737305 28.42854492 9.48583984 29.73193359 C10.08296248 33.52731991 10.97616898 34.71147601 14 37 C15.98629159 37.51457302 15.98629159 37.51457302 18 37.3125 C18.6909375 37.27769531 19.381875 37.24289063 20.09375 37.20703125 C22.13387422 36.98546038 24.05034836 36.64988388 26 36 C27.08700208 32.44328539 27.17060439 29.07769771 27.24609375 25.37109375 C27.27896484 24.08912109 27.31183594 22.80714844 27.34570312 21.48632812 C27.39320584 19.45651 27.4377075 17.42672666 27.47680664 15.39672852 C27.51651411 13.42966304 27.56863344 11.46286043 27.62109375 9.49609375 C27.6461499 8.32232178 27.67120605 7.1485498 27.69702148 5.93920898 C28 3 28 3 30 0 C33.5 -0.3125 33.5 -0.3125 37 0 C39.42714651 2.42714651 39.26217187 3.05615005 39.30639648 6.3828125 C39.32238388 7.29135986 39.33837128 8.19990723 39.35484314 9.13598633 C39.36020584 10.12236084 39.36556854 11.10873535 39.37109375 12.125 C39.38463646 13.65000122 39.38463646 13.65000122 39.39845276 15.20581055 C39.41298721 17.36455328 39.42184989 19.52334039 39.42553711 21.68212891 C39.43735375 24.9594369 39.48644067 28.23481299 39.53710938 31.51171875 C39.54658288 33.61197001 39.55381347 35.71223281 39.55859375 37.8125 C39.57812607 38.78268066 39.59765839 39.75286133 39.61778259 40.75244141 C39.57205904 47.77727691 37.90736554 53.12159158 34 59 C27.55164227 64.60726759 20.23157363 65.44001979 11.95703125 65.3359375 C7.5897307 64.83978447 4.72084198 63.28974891 1 61 C0.63924051 55.58860759 0.63924051 55.58860759 2.1875 53.0625 C4 52 4 52 6.5625 52.25 C9 53 9 53 11 54 C15.5582714 54.41952232 19.7181994 54.44470633 24.0625 52.9375 C26.80347764 50.19652236 26.78628174 47.7756892 27 44 C25.88625 44.66 24.7725 45.32 23.625 46 C18.74850515 48.42095489 14.36261149 48.88177169 9 48 C4.11521204 45.64806505 1.63938057 42.69223213 -1 38 C-2.87229088 32.50605168 -2.18595258 26.35976062 -2.18530273 20.6184082 C-2.1874961 18.44137214 -2.20569222 16.2648376 -2.22460938 14.08789062 C-2.22754237 12.70312673 -2.22952779 11.31836043 -2.23046875 9.93359375 C-2.23457764 8.67603271 -2.23868652 7.41847168 -2.24291992 6.12280273 C-2 3 -2 3 0 0 Z " fill="#5360A8" transform="translate(238,50)"/>
<path d="M0 0 C2.4375 0.75 2.4375 0.75 4.4375 2.75 C4.75634766 4.90478516 4.75634766 4.90478516 4.8515625 7.5390625 C4.89023437 8.48007812 4.92890625 9.42109375 4.96875 10.390625 C4.9996875 11.37546875 5.030625 12.3603125 5.0625 13.375 C5.10117187 14.36757813 5.13984375 15.36015625 5.1796875 16.3828125 C5.2741314 18.83835385 5.35969875 21.2938841 5.4375 23.75 C6.38625 22.945625 7.335 22.14125 8.3125 21.3125 C12.87886502 17.44101662 16.42700243 17.29306664 22.37890625 17.3359375 C26.35971612 17.87484663 28.29182794 19.21424107 31.1328125 21.94921875 C34.45201945 26.53051936 34.74535797 31.0691596 34.73828125 36.5703125 C34.74256638 37.31078827 34.7468515 38.05126404 34.75126648 38.81417847 C34.75698778 40.37236511 34.75752632 41.93057846 34.75317383 43.48876953 C34.75000069 45.8744826 34.77354383 48.2589701 34.79882812 50.64453125 C34.80110002 52.16145677 34.80180512 53.67838562 34.80078125 55.1953125 C34.809991 55.90785187 34.81920074 56.62039124 34.82868958 57.35452271 C34.80130188 60.27559637 34.77952895 62.26320304 33.07104492 64.69482422 C30.68719113 66.23465624 29.21083112 66.23533295 26.4375 65.75 C24.02773296 63.38670627 23.46516489 61.98581987 23.06860352 58.60546875 C23.06787842 57.39503906 23.06715332 56.18460938 23.06640625 54.9375 C23.04902886 53.60155987 23.03144442 52.26562243 23.01367188 50.9296875 C23.00359291 48.83621355 23.00000577 46.7429113 23.00170898 44.64941406 C22.99813427 42.61992768 22.97078544 40.59175248 22.94140625 38.5625 C22.93862671 36.74685547 22.93862671 36.74685547 22.93579102 34.89453125 C22.34295896 31.15338629 21.45874743 29.97159489 18.4375 27.75 C14.17606568 27.13015501 12.19361678 27.25688036 8.5625 29.625 C5.07939223 33.10810777 5.298175 35.35040708 5.2265625 40.18359375 C5.19820313 41.47201172 5.16984375 42.76042969 5.140625 44.08789062 C5.0993376 46.13972672 5.06245098 48.19132235 5.03613281 50.2434082 C5.00853299 52.22369577 4.9615566 54.20368342 4.9140625 56.18359375 C4.89424316 57.37009521 4.87442383 58.55659668 4.85400391 59.77905273 C4.4375 62.75 4.4375 62.75 3.06787109 64.64086914 C0.75990731 66.21096191 -0.83581301 66.09957526 -3.5625 65.75 C-6.26405783 63.04844217 -5.82119932 61.64206633 -5.8371582 57.86328125 C-5.84669022 56.62860107 -5.85622223 55.3939209 -5.86604309 54.12182617 C-5.8657817 52.76871716 -5.86484481 51.41560813 -5.86328125 50.0625 C-5.86716659 48.68009308 -5.87150092 47.29768736 -5.87626648 45.9152832 C-5.88373333 43.01672497 -5.88343386 40.11828852 -5.87817383 37.21972656 C-5.87237462 33.5003002 -5.88931817 29.78137108 -5.9125185 26.06202698 C-5.92722974 23.20704216 -5.92813122 20.35217787 -5.92500877 17.49716187 C-5.92552318 16.12559015 -5.93078328 14.75401189 -5.94082069 13.38247681 C-5.95311757 11.46726255 -5.94447652 9.55194811 -5.93481445 7.63671875 C-5.93544388 6.54576904 -5.9360733 5.45481934 -5.9367218 4.33081055 C-5.81322861 3.47914307 -5.68973541 2.62747559 -5.5625 1.75 C-2.5625 -0.25 -2.5625 -0.25 0 0 Z " fill="#515EA7" transform="translate(389.5625,31.25)"/>
<path d="M0 0 C3 0.25 3 0.25 5 2.25 C5.25537109 5.15161133 5.25537109 5.15161133 5.2734375 8.83203125 C5.29373519 10.16993011 5.31458613 11.50782067 5.3359375 12.84570312 C5.35849156 14.95230093 5.37498905 17.05857042 5.38085938 19.1652832 C5.39042063 21.20063524 5.42424565 23.2345121 5.4609375 25.26953125 C5.46915527 26.48745361 5.47737305 27.70537598 5.48583984 28.96020508 C6.09063218 32.8298996 7.26100736 34.50141481 10 37.25 C13.53475269 38.23724538 17.02672436 37.599381 20.4375 36.375 C22.15893274 35.31925899 22.15893274 35.31925899 23 33.25 C23.11911147 31.03463737 23.17919083 28.8159915 23.2109375 26.59765625 C23.23900187 25.2506388 23.26766631 23.90363375 23.296875 22.55664062 C23.33816581 20.43237601 23.37505148 18.30834385 23.40136719 16.18383789 C23.42896442 14.13379147 23.47482618 12.0847976 23.5234375 10.03515625 C23.54325684 8.80676025 23.56307617 7.57836426 23.58349609 6.31274414 C24 3.25 24 3.25 25.33837891 1.34545898 C27.90795453 -0.3485883 30.01029068 -0.06805418 33 0.25 C36.45830802 3.70830802 35.33866617 8.7360271 35.37109375 13.41015625 C35.37085205 14.51061279 35.37085205 14.51061279 35.37060547 15.63330078 C35.37494351 17.84618128 35.41114853 20.05700864 35.44921875 22.26953125 C35.50948991 29.79766538 35.36946091 35.82432219 31 42.25 C26.19183214 47.05816786 21.27678338 48.34937362 14.625 48.625 C7.90525424 48.48786233 3.31194796 46.6227887 -1.375 41.8125 C-4.58604799 36.74892433 -5.25522628 32.83246217 -5.265625 26.83203125 C-5.26753845 26.1335759 -5.2694519 25.43512054 -5.27142334 24.71549988 C-5.27277846 23.2472599 -5.26912923 21.77900767 -5.26074219 20.31079102 C-5.24998393 18.05913661 -5.26068455 15.8082712 -5.2734375 13.55664062 C-5.27211673 12.1276024 -5.26955606 10.69856467 -5.265625 9.26953125 C-5.26336914 7.97120361 -5.26111328 6.67287598 -5.25878906 5.33520508 C-4.90837783 1.1577081 -4.18874382 0.34906199 0 0 Z " fill="#525FA8" transform="translate(294,49.75)"/>
<path d="M0 0 C3.55428114 1.42273234 6.3032889 3.3032889 9 6 C9.1875 8.9375 9.1875 8.9375 9 12 C8.34 12.66 7.68 13.32 7 14 C3.10420892 13.69243755 0.99707974 12.39766379 -2 10 C-5.52059568 8.82646811 -8.306493 8.79853598 -12 9 C-12.66 9.66 -13.32 10.32 -14 11 C-14.14768913 13.51749828 -14.14768913 13.51749828 -13 16 C-10.18234586 17.90382037 -7.35653377 18.89400347 -4.109375 19.859375 C5.39455349 22.71523529 5.39455349 22.71523529 8.25 25.5625 C10.73632767 30.44635793 10.98314698 34.62866043 10 40 C8.24456093 43.83567303 5.46276207 45.72234276 1.875 47.875 C-4.82418998 50.3269911 -12.70456825 49.89335027 -19.203125 47.046875 C-22.54453025 45.10014324 -24.60452986 43.07111556 -27 40 C-27 36.49411744 -26.47626902 35.47626902 -24 33 C-20.38189087 33.10337455 -18.49395493 34.33638647 -15.8125 36.5625 C-11.52217368 39.84167012 -7.20588929 39.66620155 -2 39 C-1.01 38.505 -1.01 38.505 0 38 C0 36.35 0 34.7 0 33 C-4.70428232 30.86375585 -9.39992854 28.84668545 -14.25 27.0625 C-18.42888846 25.41174157 -21.15568244 23.578335 -24 20 C-25.24504613 16.2648616 -25.65286088 12.8731522 -25 9 C-18.63144821 -0.64380699 -10.89241715 -1.27942678 0 0 Z " fill="#5360A8" transform="translate(364,49)"/>
<path d="M0 0 C0.66 0 1.32 0 2 0 C3.33934716 2.95564708 4.67044247 5.9149378 6 8.875 C6.3815625 9.71675781 6.763125 10.55851562 7.15625 11.42578125 C7.5171875 12.23144531 7.878125 13.03710938 8.25 13.8671875 C8.58515625 14.61081543 8.9203125 15.35444336 9.265625 16.12060547 C10 18 10 18 10 20 C4.39 20 -1.22 20 -7 20 C-6.16818874 15.00913247 -4.97196287 11.14707756 -2.9375 6.625 C-2.65583984 5.98433594 -2.37417969 5.34367187 -2.08398438 4.68359375 C-1.39540579 3.11970341 -0.69855289 1.55946059 0 0 Z " fill="#F5F5FA" transform="translate(203,53)"/>
<path d="M0 0 C3.1108633 4.66629496 3.12311555 8.79648451 3.0625 14.3125 C3.05347656 15.38113281 3.04445313 16.44976562 3.03515625 17.55078125 C3.02355469 18.35902344 3.01195313 19.16726562 3 20 C0.03 20 -2.94 20 -6 20 C-5.19000044 17.04096103 -4.37712017 14.08276689 -3.5625 11.125 C-3.21735352 9.86236328 -3.21735352 9.86236328 -2.86523438 8.57421875 C-2.64287109 7.76855469 -2.42050781 6.96289062 -2.19140625 6.1328125 C-1.98717041 5.38918457 -1.78293457 4.64555664 -1.57250977 3.87939453 C-1 2 -1 2 0 0 Z " fill="#E6E7ED" transform="translate(66,47)"/>
<path d="M0 0 C2.38671875 0.67578125 2.38671875 0.67578125 5 2 C7.70273447 7.56228289 8.4077797 13.88330453 8 20 C7.34 19.34 6.68 18.68 6 18 C6 17.01 6 16.02 6 15 C5.34 15 4.68 15 4 15 C4 14.34 4 13.68 4 13 C3.34 13 2.68 13 2 13 C2 12.34 2 11.68 2 11 C1.34 11 0.68 11 0 11 C0.29296875 9.01432292 0.5859375 7.02864583 0.87890625 5.04296875 C1.13904799 2.7974658 1.13904799 2.7974658 0 0 Z " fill="#E1E3EB" transform="translate(82,79)"/>
<path d="M0 0 C2.4375 0.625 2.4375 0.625 5 2 C5.8125 5.125 5.8125 5.125 6 8 C5.67 7.34 5.34 6.68 5 6 C3.35 6.66 1.7 7.32 0 8 C0.185625 7.236875 0.37125 6.47375 0.5625 5.6875 C1.22819173 2.91032625 1.22819173 2.91032625 0 0 Z " fill="#C0C4DB" transform="translate(82,79)"/>
<path d="M0 0 C0.66 0 1.32 0 2 0 C2 0.66 2 1.32 2 2 C2.66 2 3.32 2 4 2 C3.1875 3.9375 3.1875 3.9375 2 6 C1.01 6.33 0.02 6.66 -1 7 C-0.67 4.69 -0.34 2.38 0 0 Z " fill="#8790C1" transform="translate(61,50)"/>
</svg>
