<?xml version="1.0" encoding="UTF-8"?>
<svg version="1.1" xmlns="http://www.w3.org/2000/svg" width="500" height="133">
<path d="M0 0 C165 0 330 0 500 0 C500 43.89 500 87.78 500 133 C335 133 170 133 0 133 C0 89.11 0 45.22 0 0 Z " fill="#FCFCFC" transform="translate(0,0)"/>
<path d="M0 0 C1.20527344 -0.02578125 2.41054687 -0.0515625 3.65234375 -0.078125 C7.43747147 0.28607973 9.11657341 0.87730785 12.0625 3.25 C15.73412355 7.77301452 17.20123251 12.20869053 18.5625 17.75 C18.7697168 18.5651709 18.97693359 19.3803418 19.19042969 20.22021484 C22.20342591 32.43138559 24.66641203 44.91710279 25.80761719 57.45068359 C25.97931799 59.34809019 25.97931799 59.34809019 27.0625 61.25 C27.24231957 62.60007394 27.38273367 63.95556104 27.5 65.3125 C27.82324647 68.56581933 28.34265809 71.63905678 29.125 74.8125 C30.12816559 79.07221061 30.29661749 82.87980679 30.0625 87.25 C29.0625 88.25 29.0625 88.25 26.92944336 88.36352539 C26.01300049 88.35828857 25.09655762 88.35305176 24.15234375 88.34765625 C23.16298828 88.34443359 22.17363281 88.34121094 21.15429688 88.33789062 C20.11337891 88.32951172 19.07246094 88.32113281 18 88.3125 C16.95521484 88.30798828 15.91042969 88.30347656 14.83398438 88.29882812 C12.2434334 88.28699913 9.65299441 88.27051689 7.0625 88.25 C5.42359223 83.95270639 4.83548354 80.46574068 4.9375 75.875 C4.95554688 74.81539063 4.97359375 73.75578125 4.9921875 72.6640625 C5.01539063 71.86742188 5.03859375 71.07078125 5.0625 70.25 C4.2890625 70.45496094 3.515625 70.65992187 2.71875 70.87109375 C-3.1734543 72.39519115 -8.87811808 73.66736712 -14.9375 74.25 C-15.06125 75.466875 -15.185 76.68375 -15.3125 77.9375 C-15.65914295 81.34615569 -16.63284274 84.08906723 -17.9375 87.25 C-21.58331687 87.27887512 -25.22910463 87.29675585 -28.875 87.3125 C-30.43637695 87.32506836 -30.43637695 87.32506836 -32.02929688 87.33789062 C-33.01865234 87.34111328 -34.00800781 87.34433594 -35.02734375 87.34765625 C-36.40200806 87.35551147 -36.40200806 87.35551147 -37.80444336 87.36352539 C-39.9375 87.25 -39.9375 87.25 -40.9375 86.25 C-40.58039141 77.64180356 -37.89680216 69.65239429 -35.3125 61.5 C-35.07772949 60.75209198 -34.84295898 60.00418396 -34.60107422 59.23361206 C-30.59284575 46.53882189 -25.94875689 34.14305867 -20.9375 21.8125 C-20.61094421 21.00582886 -20.28438843 20.19915771 -19.94793701 19.36804199 C-19.01578711 17.07623552 -18.07325719 14.7890896 -17.125 12.50390625 C-16.84725739 11.82628738 -16.56951477 11.14866852 -16.28335571 10.45051575 C-12.72108167 1.99680034 -12.72108167 1.99680034 -9.18359375 0.515625 C-6.11179074 0.1523509 -3.09362976 0.03961959 0 0 Z " fill="#5260A8" transform="translate(67.9375,12.75)"/>
<path d="M0 0 C5.75821868 2.6684428 8.2201346 12.96932949 10.56640625 18.69140625 C11.11324318 20.01458107 11.11324318 20.01458107 11.67112732 21.36448669 C12.825199 24.15852 13.97523411 26.95419245 15.125 29.75 C16.2792091 32.54901135 17.43424843 35.34767857 18.58958435 38.14622498 C19.3049986 39.87997681 20.01961433 41.61405845 20.73329163 43.348526 C21.06050705 44.14302658 21.38772247 44.93752716 21.72485352 45.75610352 C22.03375519 46.50860382 22.34265686 47.26110413 22.66091919 48.03640747 C23.51406565 50.07193989 24.41411219 52.08109852 25.32006836 54.09350586 C26.65653408 57.42167054 26.74098552 58.8484577 25.5625 62.1875 C24.5625 63.1875 24.5625 63.1875 22 63.25 C21.195625 63.229375 20.39125 63.20875 19.5625 63.1875 C18.55517601 61.25379769 17.55686712 59.31539694 16.5625 57.375 C15.7271875 55.75658203 15.7271875 55.75658203 14.875 54.10546875 C13.5625 51.1875 13.5625 51.1875 13.5625 48.1875 C3.9925 48.1875 -5.5775 48.1875 -15.4375 48.1875 C-15.9325 50.6625 -15.9325 50.6625 -16.4375 53.1875 C-17.23721495 54.98358112 -18.09294586 56.75566512 -19 58.5 C-19.45503906 59.38300781 -19.91007813 60.26601562 -20.37890625 61.17578125 C-20.72824219 61.83964844 -21.07757813 62.50351563 -21.4375 63.1875 C-23.10361905 63.230221 -24.77132885 63.22813832 -26.4375 63.1875 C-27.4375 62.1875 -27.4375 62.1875 -27.68969727 59.61645508 C-27.38368385 55.45579837 -26.04659438 52.10072973 -24.40234375 48.32421875 C-24.08600479 47.57396927 -23.76966583 46.82371979 -23.44374084 46.05073547 C-22.43081389 43.65443927 -21.40337248 41.26470263 -20.375 38.875 C-19.71058643 37.31227464 -19.04716639 35.74912648 -18.38476562 34.18554688 C-17.39525903 31.85012848 -16.40399897 29.51558322 -15.40536499 27.18405151 C-13.72227483 23.25037572 -12.07323158 19.30744427 -10.48486328 15.33447266 C-10.17231094 14.55675003 -9.85975861 13.7790274 -9.53773499 12.97773743 C-8.9474012 11.50279003 -8.36324378 10.02535012 -7.78636169 8.54508972 C-4.49621404 0.34586262 -4.49621404 0.34586262 0 0 Z " fill="#363637" transform="translate(218.4375,38.8125)"/>
<path d="M0 0 C2.5 0.25 2.5 0.25 4.5 2.25 C4.78710938 5.25927734 4.78710938 5.25927734 4.84375 9.0859375 C4.8583728 9.7616983 4.87299561 10.43745911 4.88806152 11.13369751 C4.93461366 13.29740478 4.96877028 15.46102054 5 17.625 C5.04120847 20.46648237 5.09494471 23.30732566 5.15625 26.1484375 C5.17494141 27.41349121 5.19363281 28.67854492 5.21289062 29.98193359 C5.48281445 33.05438284 5.76228086 34.74456993 7.5 37.25 C11.22579089 39.73386059 13.08711402 39.6304212 17.5 39.25 C21.72664358 37.42485845 23.48335998 35.33475211 25.5 31.25 C25.96832588 27.99974737 25.96832588 27.99974737 25.94140625 24.48828125 C25.96783203 23.20501953 25.99425781 21.92175781 26.02148438 20.59960938 C26.03638011 19.25391924 26.05003818 17.90821487 26.0625 16.5625 C26.09380585 13.91225398 26.13934014 11.26331279 26.19140625 8.61328125 C26.20373291 7.44063721 26.21605957 6.26799316 26.22875977 5.05981445 C26.5 2.25 26.5 2.25 28.5 0.25 C33.05555556 0.80555556 33.05555556 0.80555556 34.5 2.25 C34.61914077 3.74150399 34.67007812 5.23853787 34.69287109 6.73461914 C34.70893402 7.68973892 34.72499695 8.6448587 34.74154663 9.62892151 C34.78597802 14.02628989 34.82710804 18.42350419 34.85009766 22.82104492 C34.86661056 25.13625167 34.89383824 27.45140844 34.93212891 29.76635742 C34.9871042 33.10622593 35.00880928 36.44489515 35.0234375 39.78515625 C35.04610687 40.8125441 35.06877625 41.83993195 35.09213257 42.89845276 C35.07263401 49.5838749 33.92410236 54.12224563 29.5 59.25 C22.14638009 65.19547993 14.70908748 66.09521762 5.5 65.25 C1.99563918 63.92075969 0.1165916 62.8665916 -2.5 60.25 C-2.125 57.625 -2.125 57.625 -1.5 55.25 C1.78696233 54.45046862 3.21023192 54.15341064 6.5 55.25 C8.45475009 55.3947963 10.4151138 55.47067502 12.375 55.5 C13.40367187 55.52578125 14.43234375 55.5515625 15.4921875 55.578125 C18.96081155 55.19972965 20.78814502 54.43414266 23.5 52.25 C24.30636809 50.22873076 24.30636809 50.22873076 24.3125 48.0625 C24.4053125 46.1753125 24.4053125 46.1753125 24.5 44.25 C23.38625 44.91 22.2725 45.57 21.125 46.25 C16.24850515 48.67095489 11.86261149 49.13177169 6.5 48.25 C1.60527193 45.89327908 -0.81615602 42.92187656 -3.5 38.25 C-4.67975644 34.71073068 -4.66211347 31.49214551 -4.66796875 27.80859375 C-4.67129715 27.08511246 -4.67462555 26.36163116 -4.67805481 25.6162262 C-4.68311173 24.0889652 -4.68546352 22.56169319 -4.68530273 21.03442383 C-4.68749514 18.69268786 -4.70567948 16.35141863 -4.72460938 14.00976562 C-4.72754232 12.52604328 -4.72952778 11.0423187 -4.73046875 9.55859375 C-4.73765427 8.85649277 -4.74483978 8.15439178 -4.75224304 7.43101501 C-4.71934684 0.47193468 -4.71934684 0.47193468 0 0 Z " fill="#343435" transform="translate(254.5,54.75)"/>
<path d="M0 0 C3.29714793 0.32971479 4.6226839 0.6226839 7 3 C7.31884766 5.24658203 7.31884766 5.24658203 7.4140625 8.0078125 C7.45273437 8.99394531 7.49140625 9.98007812 7.53125 10.99609375 C7.5621875 12.02863281 7.593125 13.06117187 7.625 14.125 C7.66367187 15.16527344 7.70234375 16.20554687 7.7421875 17.27734375 C7.83664766 19.85138311 7.92221214 22.42541155 8 25 C8.42845215 24.57340088 8.8569043 24.14680176 9.29833984 23.70727539 C12.3197108 20.88108451 14.22566663 19.1597401 18.3515625 18.30859375 C19.43179687 18.35113281 20.51203125 18.39367187 21.625 18.4375 C23.25308594 18.46650391 23.25308594 18.46650391 24.9140625 18.49609375 C30.07730972 19.33920627 32.17732838 20.88532207 35.2890625 25.1015625 C38.10528779 31.29839256 37.51930527 38.35059296 37.41162109 45.02001953 C37.37476551 47.39007954 37.37060472 49.75858756 37.37109375 52.12890625 C37.36127359 53.63543024 37.34962142 55.14194365 37.3359375 56.6484375 C37.33371185 57.35672699 37.33148621 58.06501648 37.32919312 58.79476929 C37.23227818 63.76772182 37.23227818 63.76772182 35 66 C32.5 66.3125 32.5 66.3125 30 66 C27.54687553 62.32031329 27.74736013 60.4533016 27.7265625 56.06640625 C27.70627497 54.68163252 27.68542421 53.29686695 27.6640625 51.91210938 C27.64146057 49.7352 27.62498956 47.55861314 27.61914062 45.3815918 C27.6096074 43.27594139 27.57582813 41.17173283 27.5390625 39.06640625 C27.53084473 37.80771729 27.52262695 36.54902832 27.51416016 35.25219727 C26.91454502 31.45947494 26.02724228 30.28274112 23 28 C20.60050257 27.29961442 20.60050257 27.29961442 18.0625 27.375 C17.22847656 27.34148438 16.39445312 27.30796875 15.53515625 27.2734375 C12.57882761 28.1207058 10.84083874 29.30556233 8.9753418 31.76660156 C6.69496305 36.98835495 7.34220299 43.09287738 7.375 48.6875 C7.38007117 51.31722098 7.36259586 53.94437138 7.3359375 56.57421875 C7.34439697 58.31578247 7.34439697 58.31578247 7.35302734 60.0925293 C7 63 7 63 5.64306641 64.91723633 C4 66 4 66 1.375 65.75 C-1 65 -1 65 -2 64 C-2.10445557 62.07782922 -2.13855137 60.15180181 -2.14526367 58.22680664 C-2.15164352 56.99205093 -2.15802338 55.75729523 -2.16459656 54.48512268 C-2.16612512 53.12680093 -2.16723914 51.76847866 -2.16796875 50.41015625 C-2.1711797 49.02632105 -2.17454365 47.6424862 -2.17805481 46.25865173 C-2.18405224 43.35414849 -2.18589409 40.44967502 -2.18530273 37.54516602 C-2.18520109 33.81797854 -2.19885272 30.09098147 -2.21607494 26.36383915 C-2.2271778 23.50458392 -2.22922247 20.64537497 -2.22869301 17.78610039 C-2.22987574 16.41174094 -2.23431388 15.03738039 -2.24202538 13.66304207 C-2.25178998 11.74291548 -2.24769215 9.82273338 -2.24291992 7.90258789 C-2.24434494 6.80862198 -2.24576996 5.71465607 -2.24723816 4.58753967 C-2 2 -2 2 0 0 Z " fill="#353536" transform="translate(398,36)"/>
<path d="M0 0 C3.29714793 0.32971479 4.6226839 0.6226839 7 3 C7.28710938 5.91748047 7.28710938 5.91748047 7.34375 9.6171875 C7.3583728 10.27075226 7.37299561 10.92431702 7.38806152 11.59768677 C7.43460659 13.69006225 7.46876632 15.78234328 7.5 17.875 C7.54121932 20.62274325 7.59496022 23.36982689 7.65625 26.1171875 C7.67494141 27.34034668 7.69363281 28.56350586 7.71289062 29.82373047 C7.98366144 32.81924776 8.33136894 34.53175504 10 37 C12.58008592 38.29004296 14.55741574 38.20410224 17.4375 38.25 C18.40558594 38.27578125 19.37367188 38.3015625 20.37109375 38.328125 C23.02590891 38.22463888 23.02590891 38.22463888 24.78515625 36.609375 C27.35656934 33.20287278 27.15052768 30.56886172 27.2109375 26.34765625 C27.23900187 25.0006388 27.26766631 23.65363375 27.296875 22.30664062 C27.33816581 20.18237601 27.37505148 18.05834385 27.40136719 15.93383789 C27.42896442 13.88379147 27.47482618 11.8347976 27.5234375 9.78515625 C27.54325684 8.55676025 27.56307617 7.32836426 27.58349609 6.06274414 C28 3 28 3 29.36572266 1.06030273 C31 0 31 0 33.625 0.25 C36 1 36 1 37 2 C37.29255285 6.57456368 37.31421324 11.15208536 37.35009766 15.73510742 C37.36656678 17.2743247 37.39373618 18.8134684 37.43212891 20.35229492 C37.84141088 36.84635835 37.84141088 36.84635835 32 43 C27.66567742 47.19450573 22.49241696 48.14534646 16.625 48.4375 C10.05791124 48.28581453 6.12981365 46.16768935 1.56762695 41.55029297 C-3.21476167 35.19650858 -2.65515216 27.9869284 -2.48706055 20.40722656 C-2.43716298 18.10948042 -2.42554523 15.81386701 -2.41992188 13.515625 C-2.40585206 12.05466459 -2.3896535 10.59372277 -2.37109375 9.1328125 C-2.36573105 8.44639679 -2.36036835 7.75998108 -2.35484314 7.05276489 C-2.23345228 2.23345228 -2.23345228 2.23345228 0 0 Z " fill="#373738" transform="translate(304,55)"/>
<path d="M0 0 C2.01716321 1.21110803 3.45497793 2.34799632 4.9453125 4.16796875 C5.1328125 6.85546875 5.1328125 6.85546875 4.9453125 9.16796875 C2.1328125 9.85546875 2.1328125 9.85546875 -1.0546875 10.16796875 C-2.7421875 8.79296875 -2.7421875 8.79296875 -4.0546875 7.16796875 C-7.03349635 6.17503247 -9.07069948 6.03390464 -12.1796875 6.04296875 C-13.06914062 6.04039063 -13.95859375 6.0378125 -14.875 6.03515625 C-17.03259838 5.9249489 -17.03259838 5.9249489 -18.0546875 7.16796875 C-18.47170872 10.08373785 -18.47170872 10.08373785 -18.0546875 13.16796875 C-14.99711396 16.14449817 -11.74066433 16.9732942 -7.6796875 18.04296875 C-2.27998222 19.62041074 1.08519506 21.09340034 4.9453125 25.16796875 C6.8134124 28.90416856 6.48903878 33.09939622 5.9453125 37.16796875 C4.19318675 40.96293169 1.37104098 42.91253166 -2.1796875 45.04296875 C-7.96828602 47.12736648 -14.08145071 47.20428365 -19.87890625 45.18359375 C-24.23491601 43.12323293 -27.51903901 41.39680271 -30.0546875 37.16796875 C-29.7421875 34.41796875 -29.7421875 34.41796875 -29.0546875 32.16796875 C-26.4296875 31.85546875 -26.4296875 31.85546875 -23.0546875 32.16796875 C-22.1884375 32.99296875 -21.3221875 33.81796875 -20.4296875 34.66796875 C-17.40566451 37.53027928 -14.89474142 37.53320728 -10.8046875 37.54296875 C-6.77484735 37.47027848 -6.77484735 37.47027848 -3.0546875 36.16796875 C-2.63722142 33.29432084 -2.63722142 33.29432084 -3.0546875 30.16796875 C-6.47837845 27.65476756 -10.02061078 26.40289019 -14.0546875 25.16796875 C-19.30497093 23.56073913 -23.70997105 22.16185867 -26.8671875 17.48046875 C-28.39442789 13.22027188 -28.5568743 10.68764999 -28.0546875 6.16796875 C-22.13950278 -4.67653657 -9.90897387 -4.63484261 0 0 Z " fill="#383839" transform="translate(380.0546875,56.83203125)"/>
<path d="M0 0 C3.25949696 3.75092881 4.85806118 8.07240903 6.6875 12.625 C7.00783203 13.40101562 7.32816406 14.17703125 7.65820312 14.9765625 C10 20.7286947 10 20.7286947 10 23 C3.73 23 -2.54 23 -9 23 C-8.30422342 19.5211171 -7.71797186 16.99336689 -6.40625 13.828125 C-6.09816406 13.08175781 -5.79007813 12.33539063 -5.47265625 11.56640625 C-5.15167969 10.80199219 -4.83070313 10.03757812 -4.5 9.25 C-4.17902344 8.47011719 -3.85804688 7.69023438 -3.52734375 6.88671875 C-1.13778832 1.13778832 -1.13778832 1.13778832 0 0 Z " fill="#F6F6F6" transform="translate(217,55)"/>
<path d="M0 0 C3.23376984 6.0468867 3.11757439 12.29825993 3 19 C0.36 19 -2.28 19 -5 19 C-4.35731596 14.54856736 -3.29333357 10.41118353 -1.9375 6.125 C-1.57527344 4.97257812 -1.21304688 3.82015625 -0.83984375 2.6328125 C-0.42412109 1.32957031 -0.42412109 1.32957031 0 0 Z " fill="#EEEEF1" transform="translate(66,45)"/>
<path d="M0 0 C0.66 0 1.32 0 2 0 C2 0.66 2 1.32 2 2 C2.99 2.33 3.98 2.66 5 3 C6.85519597 6.55263719 7.33837251 9.84748634 7.625 13.8125 C7.69976562 14.78832031 7.77453125 15.76414062 7.8515625 16.76953125 C7.92503906 17.87361328 7.92503906 17.87361328 8 19 C4 14.25 4 14.25 4 12 C2.68 11.34 1.36 10.68 0 10 C0 8.68 0 7.36 0 6 C0.66 6 1.32 6 2 6 C1.34 4.02 0.68 2.04 0 0 Z " fill="#E2E4EC" transform="translate(82,77)"/>
<path d="M0 0 C0.33 0.66 0.66 1.32 1 2 C0.67 2.556875 0.34 3.11375 0 3.6875 C-1.4237839 6.98000028 -0.56064841 9.511521 0 13 C-0.4375 15.4375 -0.4375 15.4375 -1 17 C1.64 17 4.28 17 7 17 C7.33 16.01 7.66 15.02 8 14 C8 15.32 8 16.64 8 18 C6.37536158 18.05395478 4.75021459 18.09277195 3.125 18.125 C1.76761719 18.15980469 1.76761719 18.15980469 0.3828125 18.1953125 C-2 18 -2 18 -4 16 C-4.66 16 -5.32 16 -6 16 C-6.33 17.32 -6.66 18.64 -7 20 C-8 18 -8 18 -7.109375 15.13671875 C-6.66078125 13.99847656 -6.2121875 12.86023438 -5.75 11.6875 C-5.09257813 9.99173828 -5.09257813 9.99173828 -4.421875 8.26171875 C-3.14253057 5.32695886 -1.7190708 2.69489628 0 0 Z " fill="#9EA6CC" transform="translate(62,47)"/>
<path d="M0 0 C1.65 0.33 3.3 0.66 5 1 C4.67 2.65 4.34 4.3 4 6 C1.69 6 -0.62 6 -3 6 C-2.01 4.02 -1.02 2.04 0 0 Z " fill="#838CBF" transform="translate(78,57)"/>
<path d="M0 0 C0.66 0 1.32 0 2 0 C2 0.66 2 1.32 2 2 C2.99 2.33 3.98 2.66 5 3 C5.6875 5.0625 5.6875 5.0625 6 7 C4.125 6.875 4.125 6.875 2 6 C0.75 2.9375 0.75 2.9375 0 0 Z " fill="#CFD2E3" transform="translate(82,77)"/>
<path d="M0 0 C0.66 0 1.32 0 2 0 C2 0.99 2 1.98 2 3 C2.66 3 3.32 3 4 3 C4 3.66 4 4.32 4 5 C2.68 4.67 1.36 4.34 0 4 C-0.33 4.99 -0.66 5.98 -1 7 C-1.33 6.34 -1.66 5.68 -2 5 C-1.0625 2.375 -1.0625 2.375 0 0 Z " fill="#6470B0" transform="translate(47,35)"/>
<path d="M0 0 C1.67542976 0.28604898 3.34385343 0.61781233 5 1 C2.33333333 2.33333333 -0.33333333 3.66666667 -3 5 C-1.125 1.125 -1.125 1.125 0 0 Z " fill="#484849" transform="translate(216,39)"/>
</svg>
